HIERARCHY
ROOT Pelvis
{
	OFFSET 0.000000 0.000000 0.000000
	CHANNELS 6 Xposition Yposition Zposition Xrotation Yrotation Zrotation
	JOINT LeftUpLeg_virtual
	{
		OFFSET 0.000000 0.000000 0.000000
		CHANNELS 3 Xrotation Yrotation Zrotation
		JOINT LeftUpLeg
		{
			OFFSET 8.479700 -4.795502 -0.379100
			CHANNELS 3 Xrotation Yrotation Zrotation
			JOINT LeftLeg
			{
				OFFSET 0.024144 -32.555107 0.112900
				CHANNELS 3 Xrotation Yrotation Zrotation
				JOINT LeftFoot
				{
					OFFSET -0.024144 -32.638630 -3.012600
					CHANNELS 3 Xrotation Yrotation Zrotation
					JOINT LeftToeBase
					{
						OFFSET 0.970200 -13.225400 11.864200
						CHANNELS 3 Xrotation Yrotation Zrotation
						End Site
						{
							OFFSET 0 0 0
						}
					}
				}
			}
		}
	}
	JOINT RightUpLeg_virtual
	{
		OFFSET 0.000000 0.000000 0.000000
		CHANNELS 3 Xrotation Yrotation Zrotation
		JOINT RightUpLeg
		{
			OFFSET -8.479700 -4.795502 -0.379100
			CHANNELS 3 Xrotation Yrotation Zrotation
			JOINT RightLeg
			{
				OFFSET -0.023144 -32.555092 0.112900
				CHANNELS 3 Xrotation Yrotation Zrotation
				JOINT RightFoot
				{
					OFFSET 0.023144 -32.638641 -3.012700
					CHANNELS 3 Xrotation Yrotation Zrotation
					JOINT RightToeBase
					{
						OFFSET -0.970200 -13.225400 11.864200
						CHANNELS 3 Xrotation Yrotation Zrotation
						End Site
						{
							OFFSET 0 0 0
						}
					}
				}
			}
		}
	}
	JOINT Hips_virtual
	{
		OFFSET 0.000000 0.000000 0.000000
		CHANNELS 3 Xrotation Yrotation Zrotation
		JOINT Hips
		{
			OFFSET -0.000000 -0.000000 -0.000000
			CHANNELS 3 Xrotation Yrotation Zrotation
			JOINT Spine
			{
				OFFSET 0.000000 7.722000 1.166200
				CHANNELS 3 Xrotation Yrotation Zrotation
				JOINT Spine1
				{
					OFFSET 0.000000 12.024101 0.248800
					CHANNELS 3 Xrotation Yrotation Zrotation
					JOINT Spine2
					{
						OFFSET 0.000000 11.502998 -0.491200
						CHANNELS 3 Xrotation Yrotation Zrotation
						JOINT Neck_virtual
						{
							OFFSET 0.000000 0.000000 0.000000
							CHANNELS 3 Xrotation Yrotation Zrotation
							JOINT Neck
							{
								OFFSET 0.000000 18.430702 -3.123100
								CHANNELS 3 Xrotation Yrotation Zrotation
								JOINT Head
								{
									OFFSET 0.000000 9.051102 1.034000
									CHANNELS 3 Xrotation Yrotation Zrotation
									End Site
									{
										OFFSET 0 0 0
									}
								}
							}
						}
						JOINT LeftShoulder_virtual
						{
							OFFSET 0.000000 0.000000 0.000000
							CHANNELS 3 Xrotation Yrotation Zrotation
							JOINT LeftShoulder
							{
								OFFSET 6.197800 13.665199 -4.064700
								CHANNELS 3 Xrotation Yrotation Zrotation
								JOINT LeftArm
								{
									OFFSET 7.778100 -0.187103 -1.709300
									CHANNELS 3 Xrotation Yrotation Zrotation
									JOINT LeftForeArm
									{
										OFFSET 22.049376 0.000000 0.000000
										CHANNELS 3 Xrotation Yrotation Zrotation
										JOINT LeftHand
										{
											OFFSET 23.009392 0.000000 0.000000
											CHANNELS 3 Xrotation Yrotation Zrotation
											End Site
											{
												OFFSET 0 0 0
											}
										}
									}
								}
							}
						}
						JOINT RightShoulder_virtual
						{
							OFFSET 0.000000 0.000000 0.000000
							CHANNELS 3 Xrotation Yrotation Zrotation
							JOINT RightShoulder
							{
								OFFSET -6.197800 13.665199 -4.064700
								CHANNELS 3 Xrotation Yrotation Zrotation
								JOINT RightArm
								{
									OFFSET -7.778100 -0.187103 -1.709300
									CHANNELS 3 Xrotation Yrotation Zrotation
									JOINT RightForeArm
									{
										OFFSET -22.049376 0.000000 0.000000
										CHANNELS 3 Xrotation Yrotation Zrotation
										JOINT RightHand
										{
											OFFSET -23.009392 0.000000 0.000000
											CHANNELS 3 Xrotation Yrotation Zrotation
											End Site
											{
												OFFSET 0 0 0
											}
										}
									}
								}
							}
						}
					}
				}
			}
		}
	}
}
MOTION
Frames: 10
Frame Time: 0.03333333
-0.169135 73.867935 0.175032 0.000000 0.000000 0.000000 3.016503 -58.257340 6.570141 -35.248912 10.178940 24.280691 43.158862 -7.474283 -9.787939 -9.604942 -2.815436 -8.045714 0.000000 0.000000 0.000000 3.016503 -58.257340 6.570141 -32.837654 -8.276830 -25.536493 48.055046 2.410771 -7.553417 -19.170278 2.844733 20.706774 0.000000 0.000000 0.000000 3.016503 -58.257340 6.570141 0.000000 -0.000004 0.000000 11.191589 0.111596 -2.787695 8.434600 0.027697 -5.592319 0.000000 0.000000 0.000000 8.457035 0.027838 -5.591852 -21.556842 25.063178 12.062626 0.000000 0.000000 0.000000 8.457035 0.027838 -5.591852 -6.221669 -11.503856 -4.023819 -23.062127 9.568637 -36.639617 0.046138 -43.169292 -0.011165 0.000000 0.000000 0.000000 8.457035 0.027838 -5.591852 -5.488246 10.658292 2.466532 -41.473810 -26.755529 30.078958 -155.044543 68.136861 156.691561 0.000000 0.000000 0.000000 
-0.293399 73.815567 0.235620 0.000000 0.000000 0.000000 1.351228 -58.533048 4.915881 -34.416032 10.177580 24.770516 43.546148 -7.685950 -9.873902 -10.006314 -2.780020 -8.055756 0.000000 0.000000 0.000000 1.351228 -58.533048 4.915881 -31.996257 -8.659782 -25.481761 48.234338 2.898243 -7.537821 -19.417376 2.838210 20.521148 0.000000 0.000000 0.000000 1.351228 -58.533048 4.915881 0.000000 -0.000002 0.000000 10.938259 -0.071000 -2.556603 7.815276 -0.326025 -5.179802 0.000000 0.000000 0.000000 7.841703 -0.289954 -5.218249 -16.952217 25.003605 11.382617 0.000000 0.000000 0.000000 7.841703 -0.289954 -5.218249 -6.685507 -11.300271 -5.194100 -20.846111 10.084646 -34.890874 4.501447 -44.384540 0.854187 0.000000 0.000000 0.000000 7.841703 -0.289954 -5.218249 -5.634366 10.125357 2.634039 -41.005614 -24.756268 29.332189 -155.556302 69.489662 157.764229 0.000000 0.000000 0.000000 
-0.493085 73.739532 0.459127 0.000000 0.000000 0.000000 -0.229483 -58.911406 3.321272 -33.548889 10.177393 25.262831 44.188927 -7.827719 -9.991311 -10.718898 -2.734735 -8.043013 0.000000 0.000000 0.000000 -0.229483 -58.911406 3.321272 -31.116235 -9.017692 -25.520865 48.370717 3.544780 -7.504636 -19.729203 2.808749 20.390514 0.000000 0.000000 0.000000 -0.229483 -58.911406 3.321272 0.000000 0.000000 0.000000 10.330200 -0.476386 -1.985519 6.356272 -1.115953 -4.166064 0.000000 0.000000 0.000000 6.388316 -1.004142 -4.289066 -6.596748 24.682774 10.020962 0.000000 0.000000 0.000000 6.388316 -1.004142 -4.289066 -7.444597 -11.224855 -7.938100 -17.825474 12.833954 -32.921201 9.087195 -48.058300 1.764708 0.000000 0.000000 0.000000 6.388316 -1.004142 -4.289066 -5.983472 8.827086 3.075375 -38.745874 -19.254839 28.391993 -159.791237 70.132492 163.700018 0.000000 0.000000 0.000000 
-0.949256 73.681854 0.900398 0.000000 0.000000 0.000000 -1.827967 -58.857147 1.785579 -32.502271 10.268771 25.609835 44.765456 -8.363738 -10.144587 -11.655470 -2.693708 -7.889604 0.000000 0.000000 0.000000 -1.827967 -58.857147 1.785579 -29.712392 -9.522610 -25.766059 48.292719 3.918284 -7.473658 -20.315435 2.670023 20.528212 0.000000 0.000000 0.000000 -1.827967 -58.857147 1.785579 0.000000 0.000000 0.000000 9.556948 -0.932251 -1.233369 4.553880 -2.005594 -2.831329 0.000000 0.000000 0.000000 4.585544 -1.818068 -3.044923 5.236366 23.944280 8.810544 0.000000 0.000000 0.000000 4.585544 -1.818068 -3.044923 -8.310468 -11.099487 -11.307727 -14.786344 15.433472 -31.237184 14.384655 -52.081391 3.335653 0.000000 0.000000 0.000000 4.585544 -1.818068 -3.044923 -6.427618 7.045150 3.807188 -35.653799 -12.738060 26.064688 -166.178298 69.081530 172.530442 0.000000 0.000000 0.000000 
-2.209863 73.907600 1.576290 0.000000 0.000000 0.000000 -3.432007 -57.988067 0.391721 -30.368162 10.668921 25.646742 44.018930 -9.441723 -10.096025 -12.535468 -2.631138 -7.934173 0.000000 0.000000 0.000000 -3.432007 -57.988067 0.391721 -26.747974 -10.733997 -26.033534 47.119453 3.711462 -7.375794 -21.325017 2.373642 20.888587 0.000000 0.000000 0.000000 -3.432007 -57.988067 0.391721 0.000000 0.000000 0.000000 8.758084 -1.307540 -0.420797 2.764290 -2.740642 -1.391100 0.000000 0.000000 0.000000 2.788126 -2.507207 -1.672033 15.370637 22.706219 8.357470 0.000000 0.000000 0.000000 2.788126 -2.507207 -1.672033 -9.118291 -10.823755 -14.560199 -11.795160 16.529089 -30.545709 20.280452 -54.742446 5.702334 0.000000 0.000000 0.000000 2.788126 -2.507207 -1.672033 -6.841708 5.353241 4.471323 -32.053156 -9.337541 22.260562 -172.524418 63.944047 -178.458049 0.000000 0.000000 0.000000 
-3.761706 74.781860 2.331703 0.000000 0.000000 0.000000 -4.996557 -56.405058 -0.834265 -26.486307 10.273043 23.506972 41.224577 -8.566790 -8.134102 -12.631519 -2.425360 -9.454589 0.000000 0.000000 0.000000 -4.996557 -56.405058 -0.834265 -21.962337 -12.913183 -26.003013 43.097739 2.968630 -7.024394 -21.244137 2.097812 21.261499 0.000000 0.000000 0.000000 -4.996557 -56.405058 -0.834265 0.000000 0.000001 0.000000 8.028668 -1.507718 0.363696 1.222462 -3.135692 -0.007874 0.000000 0.000000 0.000000 1.235338 -2.908070 -0.311666 21.574192 20.921428 9.062099 0.000000 0.000000 0.000000 1.235338 -2.908070 -0.311666 -9.896959 -10.272587 -18.049173 -9.745092 13.468643 -31.265717 25.283784 -54.420079 7.705913 0.000000 0.000000 0.000000 1.235338 -2.908070 -0.311666 -7.207104 3.683034 5.337535 -28.963076 -9.283710 18.016550 -175.950003 56.160315 -172.765537 0.000000 0.000000 0.000000 
-5.008721 76.107956 3.141304 0.000000 0.000000 0.000000 -6.457345 -54.449807 -1.882069 -21.605063 9.813607 20.346678 36.196195 -7.302529 -5.473043 -11.539786 -2.005070 -11.123178 0.000000 0.000000 0.000000 -6.457345 -54.449807 -1.882069 -16.004930 -15.699859 -25.637706 36.246209 1.921330 -6.336042 -19.376593 1.865802 21.664986 0.000000 0.000000 0.000000 -6.457345 -54.449807 -1.882069 0.000000 0.000003 0.000000 7.429888 -1.381799 1.032634 0.073103 -2.889659 1.174774 0.000000 0.000000 0.000000 0.080099 -2.757797 0.936521 21.689310 18.210818 12.162281 0.000000 0.000000 0.000000 0.080099 -2.757797 0.936521 -10.108036 -9.688292 -18.765853 -8.320131 7.001482 -36.207495 28.914325 -50.052606 8.962373 0.000000 0.000000 0.000000 0.080099 -2.757797 0.936521 -7.484668 2.271096 6.303827 -27.690847 -13.700328 14.464894 -176.945066 47.614031 -170.179108 0.000000 0.000000 0.000000 
-5.776834 77.108780 3.986853 0.000000 0.000000 0.000000 -7.768690 -52.265656 -2.731199 -17.573218 8.645285 17.277846 32.186286 -6.163390 -2.986607 -10.480479 -1.700368 -12.431315 0.000000 0.000000 0.000000 -7.768690 -52.265656 -2.731199 -10.362366 -18.167538 -25.203229 29.597197 0.572126 -5.608481 -17.052341 1.505615 22.210303 0.000000 0.000000 0.000000 -7.768690 -52.265656 -2.731199 0.000000 -0.000001 0.000000 6.776083 -1.065378 1.558723 -0.788727 -2.282584 2.115359 0.000000 0.000000 0.000000 -0.774369 -2.263558 1.981526 17.729462 14.798735 15.783203 0.000000 0.000000 0.000000 -0.774369 -2.263558 1.981526 -10.260459 -8.745885 -19.323754 -6.450192 0.878609 -40.022798 34.104046 -47.466400 12.776449 0.000000 0.000000 0.000000 -0.774369 -2.263558 1.981526 -7.653620 1.320748 7.309003 -29.703987 -21.235558 11.906259 -174.963027 40.313327 -170.502941 0.000000 0.000000 0.000000 
-5.982442 77.588501 4.853354 0.000000 0.000000 0.000000 -8.920139 -49.969039 -3.394875 -15.264008 6.822213 14.546194 30.753767 -5.036371 -0.860871 -10.280840 -1.713239 -13.201262 0.000000 0.000000 0.000000 -8.920139 -49.969039 -3.394875 -6.421459 -19.965620 -25.034737 25.506508 -1.618961 -5.224672 -14.844694 1.070680 22.896485 0.000000 0.000000 0.000000 -8.920139 -49.969039 -3.394875 0.000001 -0.000001 0.000000 6.232619 -0.752952 1.929923 -1.612071 -1.688433 2.795861 0.000000 0.000000 0.000000 -1.592655 -1.721208 2.733279 12.858799 11.157508 18.657932 0.000000 0.000000 0.000000 -1.592655 -1.721208 2.733279 -10.203485 -7.487121 -19.427199 -1.835907 -3.336900 -41.100875 42.681371 -49.815015 23.002127 0.000000 0.000000 0.000000 -1.592655 -1.721208 2.733279 -7.724117 1.185876 8.419431 -35.405798 -30.168338 8.732731 -167.328105 35.586945 -174.222239 0.000000 0.000000 0.000000 
-5.766622 77.634781 5.730680 0.000000 0.000000 0.000000 -9.919025 -47.651139 -3.899210 -14.551636 4.709373 11.979086 31.751651 -3.927384 1.116545 -11.009351 -1.878623 -13.627383 0.000000 0.000000 0.000000 -9.919025 -47.651139 -3.899210 -4.859939 -20.746216 -25.325153 25.294485 -4.206658 -5.502517 -12.994890 0.613838 23.506209 0.000000 0.000000 0.000000 -9.919025 -47.651139 -3.899210 0.000000 0.000001 0.000000 5.869219 -0.491459 2.117338 -2.273612 -1.200512 3.151907 0.000000 0.000000 0.000000 -2.252084 -1.216331 3.112624 7.193162 8.039776 20.083668 0.000000 0.000000 0.000000 -2.252084 -1.216331 3.112624 -10.072968 -6.384045 -19.182883 3.652284 -5.396937 -39.244341 48.671020 -56.030723 33.402620 0.000000 0.000000 0.000000 -2.252084 -1.216331 3.112624 -7.847961 1.856198 9.589024 -46.038634 -39.112173 2.426730 -156.372646 33.088291 -178.888487 0.000000 0.000000 0.000000 
